<svg width="22" height="15" viewBox="0 0 22 15" fill="none" xmlns="http://www.w3.org/2000/svg">
<path d="M11.0008 11.575C12.1341 11.575 13.0964 11.179 13.8878 10.387C14.6798 9.59567 15.0758 8.63333 15.0758 7.5C15.0758 6.36667 14.6798 5.40433 13.8878 4.613C13.0964 3.821 12.1341 3.425 11.0008 3.425C9.86745 3.425 8.90511 3.821 8.11378 4.613C7.32178 5.40433 6.92578 6.36667 6.92578 7.5C6.92578 8.63333 7.32178 9.59567 8.11378 10.387C8.90511 11.179 9.86745 11.575 11.0008 11.575ZM11.0008 10.2C10.2508 10.2 9.61345 9.93733 9.08878 9.412C8.56345 8.88733 8.30078 8.25 8.30078 7.5C8.30078 6.75 8.56345 6.11233 9.08878 5.587C9.61345 5.06233 10.2508 4.8 11.0008 4.8C11.7508 4.8 12.3884 5.06233 12.9138 5.587C13.4384 6.11233 13.7008 6.75 13.7008 7.5C13.7008 8.25 13.4384 8.88733 12.9138 9.412C12.3884 9.93733 11.7508 10.2 11.0008 10.2ZM11.0008 14.5C8.70078 14.5 6.60511 13.8667 4.71378 12.6C2.82178 11.3333 1.43411 9.63333 0.550781 7.5C1.43411 5.36667 2.82178 3.66667 4.71378 2.4C6.60511 1.13333 8.70078 0.5 11.0008 0.5C13.3008 0.5 15.3968 1.13333 17.2888 2.4C19.1801 3.66667 20.5674 5.36667 21.4508 7.5C20.5674 9.63333 19.1801 11.3333 17.2888 12.6C15.3968 13.8667 13.3008 14.5 11.0008 14.5ZM11.0008 13C12.8841 13 14.6134 12.504 16.1888 11.512C17.7634 10.5207 18.9674 9.18333 19.8008 7.5C18.9674 5.81667 17.7634 4.479 16.1888 3.487C14.6134 2.49567 12.8841 2 11.0008 2C9.11745 2 7.38811 2.49567 5.81278 3.487C4.23811 4.479 3.03411 5.81667 2.20078 7.5C3.03411 9.18333 4.23811 10.5207 5.81278 11.512C7.38811 12.504 9.11745 13 11.0008 13Z" fill="#1C1B1F"/>
</svg>
